{
	"asset":{
		"generator":"Khronos glTF Blender I/O v3.6.27",
		"version":"2.0"
	},
	"extensionsUsed":[
		"KHR_materials_specular",
		"KHR_materials_ior"
	],
	"scene":0,
	"scenes":[
		{
			"name":"Scene",
			"nodes":[
				0
			]
		}
	],
	"nodes":[
		{
			"mesh":0,
			"name":"Cube.007",
			"translation":[
				0,
				1.0964585542678833,
				0
			]
		}
	],
	"materials":[
		{
			"doubleSided":true,
			"extensions":{
				"KHR_materials_specular":{
					"specularColorFactor":[
						0.3454339598341998,
						0.3454339598341998,
						0.3454339598341998
					]
				},
				"KHR_materials_ior":{
					"ior":1.4500000476837158
				}
			},
			"name":"Cold Grey",
			"pbrMetallicRoughness":{
				"baseColorFactor":[
					0.1016320213675499,
					0.1253037452697754,
					0.1844688504934311,
					1
				],
				"metallicFactor":0,
				"roughnessFactor":0.5
			}
		},
		{
			"doubleSided":true,
			"name":"Dark Grey",
			"pbrMetallicRoughness":{
				"baseColorFactor":[
					0.06997764855623245,
					0.06997764855623245,
					0.06997764855623245,
					1
				],
				"metallicFactor":0,
				"roughnessFactor":0.5
			}
		},
		{
			"doubleSided":true,
			"name":"Light Grey",
			"pbrMetallicRoughness":{
				"baseColorFactor":[
					0.5070669054985046,
					0.5070669054985046,
					0.5070669054985046,
					1
				],
				"metallicFactor":0,
				"roughnessFactor":0.5
			}
		},
		{
			"doubleSided":true,
			"extensions":{
				"KHR_materials_specular":{
					"specularColorFactor":[
						0.5134829151771068,
						0.5134829151771068,
						0.5134829151771068
					]
				},
				"KHR_materials_ior":{
					"ior":1.4500000476837158
				}
			},
			"name":"Metal",
			"pbrMetallicRoughness":{
				"baseColorFactor":[
					0.09685864299535751,
					0.09782520681619644,
					0.1282384693622589,
					1
				],
				"metallicFactor":0.6062992215156555,
				"roughnessFactor":0.25590550899505615
			}
		}
	],
	"meshes":[
		{
			"name":"Cube",
			"primitives":[
				{
					"attributes":{
						"POSITION":0,
						"NORMAL":1,
						"TEXCOORD_0":2
					},
					"indices":3,
					"material":0
				},
				{
					"attributes":{
						"POSITION":4,
						"NORMAL":5,
						"TEXCOORD_0":6
					},
					"indices":7,
					"material":1
				},
				{
					"attributes":{
						"POSITION":8,
						"NORMAL":9,
						"TEXCOORD_0":10
					},
					"indices":11,
					"material":2
				},
				{
					"attributes":{
						"POSITION":12,
						"NORMAL":13,
						"TEXCOORD_0":14
					},
					"indices":15,
					"material":3
				}
			]
		}
	],
	"accessors":[
		{
			"bufferView":0,
			"componentType":5126,
			"count":1243,
			"max":[
				1.5378365516662598,
				2.7522616386413574,
				1.7138042449951172
			],
			"min":[
				-1.5591075420379639,
				-1,
				-1
			],
			"type":"VEC3"
		},
		{
			"bufferView":1,
			"componentType":5126,
			"count":1243,
			"type":"VEC3"
		},
		{
			"bufferView":2,
			"componentType":5126,
			"count":1243,
			"type":"VEC2"
		},
		{
			"bufferView":3,
			"componentType":5123,
			"count":4266,
			"type":"SCALAR"
		},
		{
			"bufferView":4,
			"componentType":5126,
			"count":480,
			"max":[
				1.3890851736068726,
				2.5356087684631348,
				1.5432565212249756
			],
			"min":[
				-1.297065258026123,
				0.7075496912002563,
				1.1000193357467651
			],
			"type":"VEC3"
		},
		{
			"bufferView":5,
			"componentType":5126,
			"count":480,
			"type":"VEC3"
		},
		{
			"bufferView":6,
			"componentType":5126,
			"count":480,
			"type":"VEC2"
		},
		{
			"bufferView":7,
			"componentType":5123,
			"count":1440,
			"type":"SCALAR"
		},
		{
			"bufferView":8,
			"componentType":5126,
			"count":120,
			"max":[
				1.3260350227355957,
				2.5150861740112305,
				1.4554013013839722
			],
			"min":[
				-1.2325204610824585,
				0.7355654239654541,
				1.1000193357467651
			],
			"type":"VEC3"
		},
		{
			"bufferView":9,
			"componentType":5126,
			"count":120,
			"type":"VEC3"
		},
		{
			"bufferView":10,
			"componentType":5126,
			"count":120,
			"type":"VEC2"
		},
		{
			"bufferView":11,
			"componentType":5123,
			"count":330,
			"type":"SCALAR"
		},
		{
			"bufferView":12,
			"componentType":5126,
			"count":256,
			"max":[
				1.7373597621917725,
				2.5765693187713623,
				1.6114985942840576
			],
			"min":[
				-0.8860962390899658,
				-1,
				-7.596743671456352e-05
			],
			"type":"VEC3"
		},
		{
			"bufferView":13,
			"componentType":5126,
			"count":256,
			"type":"VEC3"
		},
		{
			"bufferView":14,
			"componentType":5126,
			"count":256,
			"type":"VEC2"
		},
		{
			"bufferView":15,
			"componentType":5123,
			"count":606,
			"type":"SCALAR"
		}
	],
	"bufferViews":[
		{
			"buffer":0,
			"byteLength":14916,
			"byteOffset":0,
			"target":34962
		},
		{
			"buffer":0,
			"byteLength":14916,
			"byteOffset":14916,
			"target":34962
		},
		{
			"buffer":0,
			"byteLength":9944,
			"byteOffset":29832,
			"target":34962
		},
		{
			"buffer":0,
			"byteLength":8532,
			"byteOffset":39776,
			"target":34963
		},
		{
			"buffer":0,
			"byteLength":5760,
			"byteOffset":48308,
			"target":34962
		},
		{
			"buffer":0,
			"byteLength":5760,
			"byteOffset":54068,
			"target":34962
		},
		{
			"buffer":0,
			"byteLength":3840,
			"byteOffset":59828,
			"target":34962
		},
		{
			"buffer":0,
			"byteLength":2880,
			"byteOffset":63668,
			"target":34963
		},
		{
			"buffer":0,
			"byteLength":1440,
			"byteOffset":66548,
			"target":34962
		},
		{
			"buffer":0,
			"byteLength":1440,
			"byteOffset":67988,
			"target":34962
		},
		{
			"buffer":0,
			"byteLength":960,
			"byteOffset":69428,
			"target":34962
		},
		{
			"buffer":0,
			"byteLength":660,
			"byteOffset":70388,
			"target":34963
		},
		{
			"buffer":0,
			"byteLength":3072,
			"byteOffset":71048,
			"target":34962
		},
		{
			"buffer":0,
			"byteLength":3072,
			"byteOffset":74120,
			"target":34962
		},
		{
			"buffer":0,
			"byteLength":2048,
			"byteOffset":77192,
			"target":34962
		},
		{
			"buffer":0,
			"byteLength":1212,
			"byteOffset":79240,
			"target":34963
		}
	],
	"buffers":[
		{
			"byteLength":80452,
			"uri":"data:application/octet-stream;base64,"
		}
	]
}
